<svg width="30" height="30" viewBox="0 0 30 30" fill="none" xmlns="http://www.w3.org/2000/svg">
<path d="M21.9843 2.98645C21.7194 2.99059 21.467 3.09965 21.2824 3.28969C21.0979 3.47974 20.9963 3.73524 20.9999 4.00012V7.00012H17.9999C17.8674 6.99825 17.7358 7.02273 17.6128 7.07214C17.4899 7.12156 17.378 7.19492 17.2836 7.28796C17.1892 7.38101 17.1143 7.49188 17.0631 7.61414C17.012 7.73639 16.9857 7.8676 16.9857 8.00012C16.9857 8.13265 17.012 8.26385 17.0631 8.38611C17.1143 8.50837 17.1892 8.61924 17.2836 8.71228C17.378 8.80533 17.4899 8.87869 17.6128 8.9281C17.7358 8.97752 17.8674 9.002 17.9999 9.00012H20.9999V12.0001C20.998 12.1326 21.0225 12.2642 21.0719 12.3872C21.1213 12.5101 21.1947 12.6221 21.2877 12.7164C21.3808 12.8108 21.4916 12.8857 21.6139 12.9369C21.7362 12.988 21.8674 13.0144 21.9999 13.0144C22.1324 13.0144 22.2636 12.988 22.3859 12.9369C22.5081 12.8857 22.619 12.8108 22.7121 12.7164C22.8051 12.6221 22.8785 12.5101 22.9279 12.3872C22.9773 12.2642 23.0018 12.1326 22.9999 12.0001V9.00012H25.9999C26.1324 9.002 26.264 8.97752 26.3869 8.9281C26.5099 8.87869 26.6218 8.80533 26.7162 8.71228C26.8106 8.61924 26.8855 8.50837 26.9366 8.38611C26.9878 8.26385 27.0141 8.13265 27.0141 8.00012C27.0141 7.8676 26.9878 7.73639 26.9366 7.61414C26.8855 7.49188 26.8106 7.38101 26.7162 7.28796C26.6218 7.19492 26.5099 7.12156 26.3869 7.07214C26.264 7.02273 26.1324 6.99825 25.9999 7.00012H22.9999V4.00012C23.0017 3.86633 22.9767 3.73354 22.9263 3.6096C22.8759 3.48566 22.8011 3.37309 22.7064 3.27857C22.6117 3.18405 22.499 3.10949 22.3749 3.05932C22.2509 3.00914 22.1181 2.98436 21.9843 2.98645ZM7.73817 5.00403C7.61275 4.99364 7.48506 5.00403 7.35731 5.03528C6.86131 5.15628 6.21786 5.45012 5.54286 6.12512C3.42986 8.23812 2.3088 11.8002 10.2538 19.7462C18.1988 27.6922 21.7609 26.5712 23.8749 24.4572C24.5519 23.7802 24.8457 23.1358 24.9667 22.6388C25.0897 22.1298 24.8699 21.6059 24.4179 21.3419C23.2899 20.6819 20.8555 19.2549 19.7265 18.5939C19.3555 18.3769 18.9001 18.3807 18.5311 18.5997L16.664 19.713C16.246 19.962 15.7237 19.9339 15.3397 19.6349C14.6767 19.1169 13.6105 18.2445 12.6815 17.3165C11.7525 16.3875 10.8802 15.3213 10.3632 14.6583C10.0642 14.2753 10.035 13.7521 10.285 13.3341L11.3983 11.4669C11.6183 11.0979 11.6192 10.6387 11.4022 10.2677L8.66005 5.58606C8.46055 5.24706 8.11444 5.0352 7.73817 5.00403Z" fill="white"/>
</svg>
