<svg width="23" height="23" viewBox="0 0 23 23" fill="none" xmlns="http://www.w3.org/2000/svg">
<path d="M4.3359 1.70234C4.69966 1.44862 5.0932 1.34529 5.44547 1.37441C5.79773 1.40352 6.10906 1.56447 6.30887 1.84069V1.84159C6.46192 2.05363 7.0491 2.94065 7.6682 3.87745C8.28731 4.81425 8.89944 5.74535 9.03562 5.96003C9.35558 6.46394 9.20575 7.04435 8.9359 7.55566V7.55656C8.72102 7.96663 8.09492 9.05665 7.91617 9.3687C8.06526 9.60365 8.65771 10.497 10.5791 12.418C12.5012 14.3397 13.3945 14.9334 13.6293 15.0828C13.9422 14.9037 15.0355 14.2759 15.4415 14.0621C15.9546 13.7909 16.53 13.653 17.0299 13.9588C17.5206 14.259 20.7933 16.4374 21.1493 16.6865C21.7158 17.0839 21.7999 17.9404 21.2921 18.6639C21.0684 18.9843 20.5212 19.6739 19.9031 20.318C19.5939 20.6402 19.2716 20.9467 18.9553 21.185C18.6389 21.4232 18.3502 21.6329 17.9311 21.6198C17.5535 21.6076 16.4359 21.5688 14.7272 20.7663C13.0186 19.9638 10.6734 18.4049 7.63316 15.364C4.59389 12.3238 3.03587 9.97876 2.23355 8.26992C1.43124 6.56107 1.39225 5.4438 1.38004 5.06609C1.36674 4.64691 1.57577 4.35753 1.81398 4.04097C2.0522 3.72441 2.35883 3.40241 2.68098 3.09312C3.32526 2.47453 4.01653 1.92571 4.3359 1.70234Z" fill="#11263C"/>
<path d="M18.1387 3.29376C18.2146 3.24264 18.304 3.21533 18.3955 3.2153C18.457 3.21531 18.5179 3.22763 18.5745 3.25155C18.6311 3.27547 18.6824 3.3105 18.7253 3.35456L21.4439 6.07324L21.4466 6.07503C21.5026 6.11812 21.5479 6.17352 21.579 6.23693C21.6101 6.30034 21.6262 6.37006 21.626 6.44069C21.6259 6.51132 21.6094 6.58096 21.578 6.64422C21.5466 6.70748 21.501 6.76265 21.4448 6.80546L18.7253 9.52503C18.6829 9.56918 18.6321 9.60443 18.5759 9.62871C18.5198 9.65299 18.4593 9.66582 18.3981 9.66644C18.3369 9.66706 18.2762 9.65547 18.2195 9.63234C18.1629 9.6092 18.1114 9.575 18.0681 9.53172C18.0248 9.48844 17.9906 9.43697 17.9675 9.38031C17.9444 9.32364 17.9328 9.26294 17.9334 9.20174C17.934 9.14054 17.9468 9.08008 17.9711 9.0239C17.9954 8.96772 18.0307 8.91695 18.0748 8.87456L20.0496 6.8998H13.34C13.2791 6.90066 13.2186 6.8894 13.162 6.86667C13.1054 6.84394 13.054 6.81019 13.0105 6.76739C12.9671 6.72459 12.9327 6.67359 12.9091 6.61735C12.8856 6.56111 12.8735 6.50076 12.8735 6.4398C12.8735 6.37884 12.8856 6.31848 12.9091 6.26224C12.9327 6.20601 12.9671 6.155 13.0105 6.1122C13.054 6.0694 13.1054 6.03566 13.162 6.01293C13.2186 5.9902 13.2791 5.97894 13.34 5.9798H20.0496L18.0748 4.00503C18.0092 3.94121 17.9642 3.85928 17.9454 3.76971C17.9266 3.68015 17.935 3.58702 17.9694 3.50224C18.0039 3.41746 18.0628 3.34487 18.1387 3.29376Z" fill="#11263C"/>
</svg>
